<svg version="1.1" id="Layer_1" xmlns="http://www.w3.org/2000/svg" xmlns:xlink="http://www.w3.org/1999/xlink" x="0px" y="0px"
	 width="100%" viewBox="0 0 512 512" enable-background="new 0 0 512 512" xml:space="preserve">
<path fill="#000000" opacity="1.000000" stroke="none" 
	d="
M271.000000,513.000000 
	C180.688583,513.000000 90.877167,513.000000 1.032874,513.000000 
	C1.032874,342.396881 1.032874,171.793777 1.032874,1.095328 
	C171.561432,1.095328 342.122955,1.095328 512.842224,1.095328 
	C512.842224,171.666550 512.842224,342.333252 512.842224,513.000000 
	C432.460419,513.000000 351.980194,513.000000 271.000000,513.000000 
M267.880768,496.997559 
	C272.472900,496.671722 277.094086,496.568420 281.651184,495.974121 
	C291.340729,494.710419 301.156097,493.868896 310.635315,491.642700 
	C333.785309,486.205994 355.858673,477.820129 376.564423,465.915802 
	C394.122223,455.821381 410.103333,443.660461 424.684418,429.707703 
	C430.976257,423.687073 436.450317,416.808380 442.257202,410.285095 
	C452.944580,398.279297 461.400604,384.753845 469.097687,370.717041 
	C480.355103,350.187561 488.106384,328.307312 492.656158,305.440826 
	C495.037292,293.473755 495.517761,281.128571 496.981842,268.029999 
	C496.656128,256.272797 497.227478,244.403885 495.780579,232.786346 
	C493.918427,217.834518 491.510284,202.783142 487.444763,188.306122 
	C477.107483,151.496155 457.865570,119.454597 431.907349,91.511658 
	C419.679260,78.348671 405.748688,67.041931 390.844055,57.005039 
	C376.400116,47.278366 361.014801,39.322849 344.794861,32.943573 
	C322.562683,24.199709 299.498047,18.507841 275.744934,17.251963 
	C254.200043,16.112839 232.556702,16.338905 211.146957,20.872414 
	C191.876358,24.952957 173.223953,30.607748 155.385757,38.941368 
	C136.436279,47.794144 118.470703,58.315685 103.091835,72.576202 
	C91.064346,83.729042 78.857330,94.925278 68.436295,107.514587 
	C54.879818,123.891685 44.293419,142.366669 35.895634,162.075272 
	C25.546347,186.363815 18.834562,211.629059 17.283516,237.833618 
	C16.009668,259.354950 16.580809,280.959473 20.796265,302.438751 
	C27.139404,334.759369 39.213520,364.607483 57.540619,391.747498 
	C70.311394,410.659302 85.523102,427.540955 103.370781,442.131470 
	C122.309433,457.613922 142.801788,470.330383 165.326782,479.527924 
	C197.840256,492.803925 231.739410,498.960114 267.880768,496.997559 
z"/>
<path fill="#0CB0FF" opacity="1.000000" stroke="none" 
	d="
M266.960693,496.851776 
	C231.739410,498.960114 197.840256,492.803925 165.326782,479.527924 
	C142.801788,470.330383 122.309433,457.613922 103.370781,442.131470 
	C85.523102,427.540955 70.311394,410.659302 57.540619,391.747498 
	C39.213520,364.607483 27.139404,334.759369 20.796265,302.438751 
	C16.580809,280.959473 16.009668,259.354950 17.283516,237.833618 
	C18.834562,211.629059 25.546347,186.363815 35.895634,162.075272 
	C44.293419,142.366669 54.879818,123.891685 68.436295,107.514587 
	C78.857330,94.925278 91.064346,83.729042 103.091835,72.576202 
	C118.470703,58.315685 136.436279,47.794144 155.385757,38.941368 
	C173.223953,30.607748 191.876358,24.952957 211.146957,20.872414 
	C232.556702,16.338905 254.200043,16.112839 275.744934,17.251963 
	C299.498047,18.507841 322.562683,24.199709 344.794861,32.943573 
	C361.014801,39.322849 376.400116,47.278366 390.844055,57.005039 
	C405.748688,67.041931 419.679260,78.348671 431.907349,91.511658 
	C457.865570,119.454597 477.107483,151.496155 487.444763,188.306122 
	C491.510284,202.783142 493.918427,217.834518 495.780579,232.786346 
	C497.227478,244.403885 496.656128,256.272797 496.638733,268.329895 
	C494.847473,267.258850 493.366058,265.921234 491.956207,264.511993 
	C462.540680,235.109238 433.138092,205.693588 403.710571,176.302856 
	C402.192108,174.786285 400.474335,173.469315 398.544678,172.087860 
	C397.498260,172.417877 396.756500,172.719452 395.731232,172.846008 
	C391.646759,169.394058 387.845856,166.117142 383.760681,162.521240 
	C382.482269,162.134552 381.488068,162.007675 380.493866,162.007553 
	C298.349976,161.998276 216.206116,161.998856 134.062241,161.998703 
	C132.972931,161.998703 131.883606,161.998703 129.743530,161.998703 
	C132.723907,164.720474 134.869919,166.680267 137.179352,168.889343 
	C137.610443,169.426605 137.878098,169.714615 138.052917,169.978363 
	C137.960098,169.954086 138.008179,169.768326 138.197510,169.987793 
	C138.686462,170.449646 138.986099,170.692017 139.163483,170.925232 
	C139.041245,170.916077 139.063187,170.671890 139.243759,170.903839 
	C139.728256,171.380554 140.032181,171.625336 140.213959,171.856873 
	C140.091827,171.843658 140.125381,171.600250 140.321777,171.875122 
	C141.115540,172.435135 141.712906,172.720291 142.479538,173.012787 
	C142.889557,173.115494 143.009094,173.292679 143.044388,173.926605 
	C144.460541,176.120773 145.649979,178.129166 147.247192,179.730972 
	C174.815384,207.378281 202.449478,234.959900 229.999695,262.625061 
	C231.544678,264.176483 232.488953,266.326141 233.390503,268.104980 
	C194.086365,235.969376 155.104553,203.926102 115.356995,171.253357 
	C115.183517,173.989380 115.011642,175.438782 115.011276,176.888214 
	C114.997543,230.172546 115.038788,283.456940 114.945671,336.741119 
	C114.935135,342.771271 117.042542,347.359497 122.167450,350.992371 
	C123.762878,352.906982 125.136391,354.578766 126.658699,356.101776 
	C171.966370,401.430481 217.290909,446.742371 262.599640,492.070038 
	C264.123108,493.594177 265.510101,495.254791 266.960693,496.851776 
z"/>
<path fill="#0092D8" opacity="1.000000" stroke="none" 
	d="
M267.420715,496.924683 
	C265.510101,495.254791 264.123108,493.594177 262.599640,492.070038 
	C217.290909,446.742371 171.966370,401.430481 126.658699,356.101776 
	C125.136391,354.578766 123.762878,352.906982 122.582733,351.100403 
	C125.293251,351.264221 127.740807,351.952271 130.188828,351.953888 
	C214.774368,352.009460 299.359955,352.007721 383.945526,351.990082 
	C393.871857,351.988007 398.977020,346.866547 398.987701,336.897797 
	C399.020599,306.260529 399.019043,275.623169 398.993896,244.985916 
	C398.973969,220.677063 398.899567,196.368256 398.849335,172.059418 
	C400.474335,173.469315 402.192108,174.786285 403.710571,176.302856 
	C433.138092,205.693588 462.540680,235.109238 491.956207,264.511993 
	C493.366058,265.921234 494.847473,267.258850 496.576080,268.791962 
	C495.517761,281.128571 495.037292,293.473755 492.656158,305.440826 
	C488.106384,328.307312 480.355103,350.187561 469.097687,370.717041 
	C461.400604,384.753845 452.944580,398.279297 442.257202,410.285095 
	C436.450317,416.808380 430.976257,423.687073 424.684418,429.707703 
	C410.103333,443.660461 394.122223,455.821381 376.564423,465.915802 
	C355.858673,477.820129 333.785309,486.205994 310.635315,491.642700 
	C301.156097,493.868896 291.340729,494.710419 281.651184,495.974121 
	C277.094086,496.568420 272.472900,496.671722 267.420715,496.924683 
z"/>
<path fill="#FFFFFF" opacity="1.000000" stroke="none" 
	d="
M398.544678,172.087860 
	C398.899567,196.368256 398.973969,220.677063 398.993896,244.985916 
	C399.019043,275.623169 399.020599,306.260529 398.987701,336.897797 
	C398.977020,346.866547 393.871857,351.988007 383.945526,351.990082 
	C299.359955,352.007721 214.774368,352.009460 130.188828,351.953888 
	C127.740807,351.952271 125.293251,351.264221 122.430191,350.788208 
	C117.042542,347.359497 114.935135,342.771271 114.945671,336.741119 
	C115.038788,283.456940 114.997543,230.172546 115.011276,176.888214 
	C115.011642,175.438782 115.183517,173.989380 115.356995,171.253357 
	C155.104553,203.926102 194.086365,235.969376 233.410461,268.085846 
	C233.752762,268.159027 233.710556,268.123199 233.816406,268.401672 
	C234.271606,268.848053 234.620956,269.015930 234.966843,269.111084 
	C234.963379,269.038391 234.818085,269.047546 234.912750,269.317413 
	C235.339645,269.751678 235.671906,269.916107 235.999176,270.044922 
	C235.994217,270.009308 235.923080,270.019745 236.031921,270.294312 
	C236.623596,270.904785 237.106461,271.240692 237.594986,271.516418 
	C237.600662,271.456207 237.480606,271.470642 237.641602,271.696960 
	C238.129028,272.086182 238.455444,272.249115 238.788452,272.319275 
	C238.795059,272.226471 238.609009,272.226196 238.738464,272.497070 
	C239.211121,272.962189 239.554306,273.156403 240.093201,273.615662 
	C252.245728,282.185791 264.632416,281.536652 276.438232,271.840485 
	C299.445038,252.944885 322.427734,234.019775 345.379822,215.057739 
	C362.291565,201.085983 379.138794,187.036118 396.014771,173.021057 
	C396.756500,172.719452 397.498260,172.417877 398.544678,172.087860 
z"/>
<path fill="#FEFFFF" opacity="1.000000" stroke="none" 
	d="
M143.007431,173.551636 
	C143.009094,173.292679 142.889557,173.115494 142.287186,172.729614 
	C141.325500,172.159500 140.725433,171.879883 140.125381,171.600250 
	C140.125381,171.600250 140.091827,171.843658 140.173218,171.513855 
	C139.857483,171.013321 139.460327,170.842606 139.063187,170.671890 
	C139.063187,170.671890 139.041245,170.916077 139.111069,170.594772 
	C138.789993,170.105087 138.399078,169.936707 138.008179,169.768326 
	C138.008179,169.768326 137.960098,169.954086 138.019226,169.656006 
	C137.724197,169.118637 137.370071,168.879349 137.015930,168.640076 
	C134.869919,166.680267 132.723907,164.720474 129.743530,161.998703 
	C131.883606,161.998703 132.972931,161.998703 134.062241,161.998703 
	C216.206116,161.998856 298.349976,161.998276 380.493866,162.007553 
	C381.488068,162.007675 382.482269,162.134552 383.437317,162.663177 
	C344.547211,195.099075 305.704468,227.083984 266.838135,259.040222 
	C259.487854,265.083710 254.569809,265.075653 247.331039,259.135559 
	C234.709198,248.778183 222.125961,238.373718 209.501038,228.020142 
	C187.346664,209.851578 165.173004,191.706528 143.007431,173.551636 
z"/>
<path fill="#0494D9" opacity="1.000000" stroke="none" 
	d="
M143.044388,173.926605 
	C165.173004,191.706528 187.346664,209.851578 209.501038,228.020142 
	C222.125961,238.373718 234.709198,248.778183 247.331039,259.135559 
	C254.569809,265.075653 259.487854,265.083710 266.838135,259.040222 
	C305.704468,227.083984 344.547211,195.099075 383.721527,162.982162 
	C387.845856,166.117142 391.646759,169.394058 395.731232,172.846008 
	C379.138794,187.036118 362.291565,201.085983 345.379822,215.057739 
	C322.427734,234.019775 299.445038,252.944885 276.438232,271.840485 
	C264.632416,281.536652 252.245728,282.185791 239.942627,273.362823 
	C239.267227,272.638702 238.938110,272.432434 238.609009,272.226196 
	C238.609009,272.226196 238.795059,272.226471 238.649536,272.068726 
	C238.162888,271.764221 237.821747,271.617432 237.480606,271.470642 
	C237.480606,271.470642 237.600662,271.456207 237.520355,271.211304 
	C236.934387,270.650879 236.428726,270.335327 235.923080,270.019745 
	C235.923080,270.019745 235.994217,270.009308 235.852890,269.819000 
	C235.413742,269.434967 235.115906,269.241272 234.818085,269.047546 
	C234.818085,269.047546 234.963379,269.038391 234.815353,268.871216 
	C234.348404,268.510406 234.029480,268.316803 233.710556,268.123199 
	C233.710556,268.123199 233.752762,268.159027 233.732803,268.178162 
	C232.488953,266.326141 231.544678,264.176483 229.999695,262.625061 
	C202.449478,234.959900 174.815384,207.378281 147.247192,179.730972 
	C145.649979,178.129166 144.460541,176.120773 143.044388,173.926605 
z"/>
<path fill="#0494D9" opacity="1.000000" stroke="none" 
	d="
M140.321777,171.875122 
	C140.725433,171.879883 141.325500,172.159500 142.117920,172.722290 
	C141.712906,172.720291 141.115540,172.435135 140.321777,171.875122 
z"/>
<path fill="#0494D9" opacity="1.000000" stroke="none" 
	d="
M137.179352,168.889343 
	C137.370071,168.879349 137.724197,169.118637 138.112045,169.680267 
	C137.878098,169.714615 137.610443,169.426605 137.179352,168.889343 
z"/>
<path fill="#0494D9" opacity="1.000000" stroke="none" 
	d="
M138.197510,169.987793 
	C138.399078,169.936707 138.789993,170.105087 139.233307,170.603943 
	C138.986099,170.692017 138.686462,170.449646 138.197510,169.987793 
z"/>
<path fill="#0494D9" opacity="1.000000" stroke="none" 
	d="
M139.243759,170.903839 
	C139.460327,170.842606 139.857483,171.013321 140.295364,171.527069 
	C140.032181,171.625336 139.728256,171.380554 139.243759,170.903839 
z"/>
<path fill="#0CB0FF" opacity="1.000000" stroke="none" 
	d="
M236.031921,270.294312 
	C236.428726,270.335327 236.934387,270.650879 237.514679,271.271515 
	C237.106461,271.240692 236.623596,270.904785 236.031921,270.294312 
z"/>
<path fill="#0CB0FF" opacity="1.000000" stroke="none" 
	d="
M233.816406,268.401672 
	C234.029480,268.316803 234.348404,268.510406 234.818817,268.943909 
	C234.620956,269.015930 234.271606,268.848053 233.816406,268.401672 
z"/>
<path fill="#0CB0FF" opacity="1.000000" stroke="none" 
	d="
M234.912750,269.317413 
	C235.115906,269.241272 235.413742,269.434967 235.857849,269.854614 
	C235.671906,269.916107 235.339645,269.751678 234.912750,269.317413 
z"/>
<path fill="#0CB0FF" opacity="1.000000" stroke="none" 
	d="
M237.641602,271.696960 
	C237.821747,271.617432 238.162888,271.764221 238.642944,272.161499 
	C238.455444,272.249115 238.129028,272.086182 237.641602,271.696960 
z"/>
<path fill="#0CB0FF" opacity="1.000000" stroke="none" 
	d="
M238.738464,272.497070 
	C238.938110,272.432434 239.267227,272.638702 239.746918,273.097778 
	C239.554306,273.156403 239.211121,272.962189 238.738464,272.497070 
z"/>
</svg>