<svg version="1.1" id="Layer_1" xmlns="http://www.w3.org/2000/svg" xmlns:xlink="http://www.w3.org/1999/xlink" x="0px" y="0px"
	 width="100%" viewBox="0 0 512 512" enable-background="new 0 0 512 512" xml:space="preserve">
<path fill="#2AA81A" opacity="1.000000" stroke="none" 
	d="
M225.000000,0.999998 
	C246.020889,1.000000 267.041779,1.000000 288.468658,1.416165 
	C291.996063,2.532049 295.087494,3.435943 298.243622,3.899262 
	C324.032684,7.685085 348.446533,15.824657 371.715057,27.387289 
	C388.266083,35.611855 404.160706,45.092999 417.889435,57.531448 
	C430.870880,69.292839 444.005371,81.116219 455.375092,94.368668 
	C470.394135,111.874634 482.353058,131.610809 491.563843,152.953995 
	C500.339081,173.287903 506.978180,194.153015 510.107330,216.118347 
	C510.539886,219.154648 512.010132,222.043106 513.000000,225.000000 
	C513.000000,246.020889 513.000000,267.041779 512.583374,288.469635 
	C511.783600,289.718079 511.188110,290.526764 511.052277,291.406464 
	C510.223236,296.775421 509.810242,302.226501 508.687378,307.529266 
	C502.500519,336.747620 492.132233,364.334686 476.580719,389.947601 
	C461.393890,414.959991 442.390594,436.721283 419.952209,455.285522 
	C399.781494,471.973602 377.486816,485.458740 352.967529,495.029663 
	C333.122040,502.776123 312.823181,508.710114 291.573090,511.085144 
	C290.655548,511.187714 289.855042,512.337891 289.000000,513.000000 
	C267.979095,513.000000 246.958206,513.000000 225.531250,512.583862 
	C224.283646,511.784485 223.475204,511.190735 222.595184,511.052429 
	C217.233093,510.209839 211.796112,509.752747 206.491486,508.650421 
	C177.213562,502.566589 149.666061,492.033569 124.012718,476.546783 
	C98.963074,461.424469 77.255592,442.355255 58.691895,419.938110 
	C42.005428,399.787872 28.540155,377.492065 18.971275,352.980865 
	C11.220017,333.125641 5.327437,312.812805 2.914910,291.565826 
	C2.810910,290.649872 1.662103,289.852570 1.000001,289.000000 
	C1.000000,267.645782 1.000000,246.291550 1.412151,224.535797 
	C2.204815,223.461670 2.775576,222.831802 2.937745,222.110123 
	C6.175629,207.701492 8.750587,193.109909 12.725613,178.909714 
	C17.479645,161.926636 24.192295,145.514954 33.861012,130.707870 
	C43.734879,115.586609 53.611141,100.244713 65.402214,86.662636 
	C76.289970,74.121071 89.176979,63.115646 102.151344,52.631435 
	C121.999023,36.593079 144.438843,24.720871 168.445602,16.063835 
	C186.096527,9.698773 204.164581,4.786285 222.938599,2.898462 
	C223.681839,2.823725 224.315353,1.657598 225.000000,0.999998 
M346.531311,165.969727 
	C314.607513,135.375839 276.648590,123.418587 233.278732,131.302887 
	C152.765335,145.939606 107.351654,233.813766 141.413315,308.277771 
	C143.303558,312.410156 143.428009,315.994476 142.555908,320.148499 
	C138.558701,339.188263 134.672531,358.251526 130.814194,377.320068 
	C129.590790,383.366241 132.172791,385.814148 138.172577,384.402313 
	C157.751785,379.795013 177.307617,375.086426 196.916290,370.608795 
	C198.987915,370.135712 201.609192,370.355347 203.536163,371.225952 
	C224.793457,380.829803 246.907959,384.525085 270.177734,382.220978 
	C332.708801,376.029327 382.370148,322.914337 383.821167,259.995300 
	C384.656555,223.770187 372.204498,192.566849 346.531311,165.969727 
z"/>
<path fill="#000000" opacity="1.000000" stroke="none" 
	d="
M513.000000,224.531342 
	C512.010132,222.043106 510.539886,219.154648 510.107330,216.118347 
	C506.978180,194.153015 500.339081,173.287903 491.563843,152.953995 
	C482.353058,131.610809 470.394135,111.874634 455.375092,94.368668 
	C444.005371,81.116219 430.870880,69.292839 417.889435,57.531448 
	C404.160706,45.092999 388.266083,35.611855 371.715057,27.387289 
	C348.446533,15.824657 324.032684,7.685085 298.243622,3.899262 
	C295.087494,3.435943 291.996063,2.532049 288.937317,1.416165 
	C363.593719,1.000000 438.187408,1.000000 513.000000,1.000000 
	C513.000000,75.354088 513.000000,149.708389 513.000000,224.531342 
z"/>
<path fill="#000000" opacity="1.000000" stroke="none" 
	d="
M1.000001,289.468658 
	C1.662103,289.852570 2.810910,290.649872 2.914910,291.565826 
	C5.327437,312.812805 11.220017,333.125641 18.971275,352.980865 
	C28.540155,377.492065 42.005428,399.787872 58.691895,419.938110 
	C77.255592,442.355255 98.963074,461.424469 124.012718,476.546783 
	C149.666061,492.033569 177.213562,502.566589 206.491486,508.650421 
	C211.796112,509.752747 217.233093,510.209839 222.595184,511.052429 
	C223.475204,511.190735 224.283646,511.784485 225.062592,512.583862 
	C150.406296,513.000000 75.812599,513.000000 1.000000,513.000000 
	C1.000000,438.645905 1.000000,364.291626 1.000001,289.468658 
z"/>
<path fill="#000000" opacity="1.000000" stroke="none" 
	d="
M289.468658,513.000000 
	C289.855042,512.337891 290.655548,511.187714 291.573090,511.085144 
	C312.823181,508.710114 333.122040,502.776123 352.967529,495.029663 
	C377.486816,485.458740 399.781494,471.973602 419.952209,455.285522 
	C442.390594,436.721283 461.393890,414.959991 476.580719,389.947601 
	C492.132233,364.334686 502.500519,336.747620 508.687378,307.529266 
	C509.810242,302.226501 510.223236,296.775421 511.052277,291.406464 
	C511.188110,290.526764 511.783600,289.718079 512.583374,288.938293 
	C513.000000,363.593719 513.000000,438.187408 513.000000,513.000000 
	C438.645905,513.000000 364.291626,513.000000 289.468658,513.000000 
z"/>
<path fill="#000000" opacity="1.000000" stroke="none" 
	d="
M224.531342,0.999998 
	C224.315353,1.657598 223.681839,2.823725 222.938599,2.898462 
	C204.164581,4.786285 186.096527,9.698773 168.445602,16.063835 
	C144.438843,24.720871 121.999023,36.593079 102.151344,52.631435 
	C89.176979,63.115646 76.289970,74.121071 65.402214,86.662636 
	C53.611141,100.244713 43.734879,115.586609 33.861012,130.707870 
	C24.192295,145.514954 17.479645,161.926636 12.725613,178.909714 
	C8.750587,193.109909 6.175629,207.701492 2.937745,222.110123 
	C2.775576,222.831802 2.204815,223.461670 1.412151,224.067139 
	C1.000000,149.739456 1.000000,75.478920 1.000000,1.000000 
	C75.354088,1.000000 149.708389,1.000000 224.531342,0.999998 
z"/>
<path fill="#FDFEFD" opacity="1.000000" stroke="none" 
	d="
M346.780151,166.220612 
	C372.204498,192.566849 384.656555,223.770187 383.821167,259.995300 
	C382.370148,322.914337 332.708801,376.029327 270.177734,382.220978 
	C246.907959,384.525085 224.793457,380.829803 203.536163,371.225952 
	C201.609192,370.355347 198.987915,370.135712 196.916290,370.608795 
	C177.307617,375.086426 157.751785,379.795013 138.172577,384.402313 
	C132.172791,385.814148 129.590790,383.366241 130.814194,377.320068 
	C134.672531,358.251526 138.558701,339.188263 142.555908,320.148499 
	C143.428009,315.994476 143.303558,312.410156 141.413315,308.277771 
	C107.351654,233.813766 152.765335,145.939606 233.278732,131.302887 
	C276.648590,123.418587 314.607513,135.375839 346.780151,166.220612 
M355.974091,264.216675 
	C356.052246,261.884766 356.175171,259.553345 356.202026,257.220856 
	C356.828522,202.728409 314.495636,158.488373 260.034790,156.709930 
	C186.994049,154.324753 136.107193,229.634293 166.431503,296.159515 
	C171.192551,306.604218 172.557831,315.746338 169.381607,326.414673 
	C167.180801,333.806641 166.196915,341.560974 164.535706,349.817261 
	C176.227005,347.072449 187.092148,344.727539 197.830231,341.900024 
	C202.175323,340.755890 205.736572,341.287628 209.657013,343.379791 
	C230.367355,354.431915 252.453888,358.145813 275.438934,353.465973 
	C320.428955,344.305908 350.412445,311.078613 355.974091,264.216675 
z"/>
<path fill="#2BA81B" opacity="1.000000" stroke="none" 
	d="
M355.953064,264.683685 
	C350.412445,311.078613 320.428955,344.305908 275.438934,353.465973 
	C252.453888,358.145813 230.367355,354.431915 209.657013,343.379791 
	C205.736572,341.287628 202.175323,340.755890 197.830231,341.900024 
	C187.092148,344.727539 176.227005,347.072449 164.535706,349.817261 
	C166.196915,341.560974 167.180801,333.806641 169.381607,326.414673 
	C172.557831,315.746338 171.192551,306.604218 166.431503,296.159515 
	C136.107193,229.634293 186.994049,154.324753 260.034790,156.709930 
	C314.495636,158.488373 356.828522,202.728409 356.202026,257.220856 
	C356.175171,259.553345 356.052246,261.884766 355.953064,264.683685 
M200.887024,205.411301 
	C193.947235,213.148453 191.442001,222.336807 193.453690,232.318710 
	C194.818985,239.093170 196.939957,245.879776 199.834625,252.147552 
	C206.002380,265.502655 215.846313,276.222504 226.501892,286.145935 
	C240.386673,299.076660 255.475342,310.195160 274.051971,315.520233 
	C296.426666,321.933990 312.090515,316.362488 323.256653,298.244019 
	C327.234863,291.788849 325.074310,285.563843 317.866364,283.239807 
	C312.963989,281.659180 307.747589,280.893829 303.042969,278.891479 
	C293.401520,274.787811 285.562622,275.742615 279.029297,284.685577 
	C276.298279,288.423828 272.039032,288.823944 267.784576,286.443420 
	C251.851074,277.528076 238.442795,265.751892 227.646515,251.029678 
	C224.850632,247.217072 224.928360,243.313065 227.805923,239.521835 
	C229.417236,237.398941 231.619644,235.512619 232.533340,233.127975 
	C233.589996,230.370300 234.656616,226.765533 233.735352,224.256989 
	C230.705139,216.005875 227.008347,207.970566 223.116714,200.074570 
	C220.332031,194.424545 214.191467,193.275345 209.213867,197.219421 
	C206.360291,199.480484 203.936249,202.283630 200.887024,205.411301 
z"/>
<path fill="#FDFEFD" opacity="1.000000" stroke="none" 
	d="
M201.102921,205.127014 
	C203.936249,202.283630 206.360291,199.480484 209.213867,197.219421 
	C214.191467,193.275345 220.332031,194.424545 223.116714,200.074570 
	C227.008347,207.970566 230.705139,216.005875 233.735352,224.256989 
	C234.656616,226.765533 233.589996,230.370300 232.533340,233.127975 
	C231.619644,235.512619 229.417236,237.398941 227.805923,239.521835 
	C224.928360,243.313065 224.850632,247.217072 227.646515,251.029678 
	C238.442795,265.751892 251.851074,277.528076 267.784576,286.443420 
	C272.039032,288.823944 276.298279,288.423828 279.029297,284.685577 
	C285.562622,275.742615 293.401520,274.787811 303.042969,278.891479 
	C307.747589,280.893829 312.963989,281.659180 317.866364,283.239807 
	C325.074310,285.563843 327.234863,291.788849 323.256653,298.244019 
	C312.090515,316.362488 296.426666,321.933990 274.051971,315.520233 
	C255.475342,310.195160 240.386673,299.076660 226.501892,286.145935 
	C215.846313,276.222504 206.002380,265.502655 199.834625,252.147552 
	C196.939957,245.879776 194.818985,239.093170 193.453690,232.318710 
	C191.442001,222.336807 193.947235,213.148453 201.102921,205.127014 
z"/>
</svg>